<mxfile host="app.diagrams.net" modified="2022-05-24T09:24:47.946Z" agent="5.0 (X11; Linux x86_64) AppleWebKit/537.36 (KHTML, like Gecko) Chrome/101.0.4951.64 Safari/537.36" etag="nXNLtKFh6uG3UGLnr1DB" version="18.0.5" type="github">
  <diagram id="EmsCurQrUrid60hmx3Mn" name="Page-1">
    <mxGraphModel dx="1355" dy="777" grid="1" gridSize="10" guides="1" tooltips="1" connect="1" arrows="1" fold="1" page="1" pageScale="1" pageWidth="827" pageHeight="1169" math="0" shadow="0">
      <root>
        <mxCell id="0" />
        <mxCell id="1" parent="0" />
        <mxCell id="EE0eZUk-QuzYK7TAEIGd-1" value="Aléa" style="swimlane;fontStyle=1;align=center;verticalAlign=top;childLayout=stackLayout;horizontal=1;startSize=26;horizontalStack=0;resizeParent=1;resizeParentMax=0;resizeLast=0;collapsible=1;marginBottom=0;" vertex="1" parent="1">
          <mxGeometry x="330" y="160" width="160" height="60" as="geometry" />
        </mxCell>
        <mxCell id="EE0eZUk-QuzYK7TAEIGd-2" value="+ intensité: real" style="text;strokeColor=none;fillColor=none;align=left;verticalAlign=top;spacingLeft=4;spacingRight=4;overflow=hidden;rotatable=0;points=[[0,0.5],[1,0.5]];portConstraint=eastwest;" vertex="1" parent="EE0eZUk-QuzYK7TAEIGd-1">
          <mxGeometry y="26" width="160" height="26" as="geometry" />
        </mxCell>
        <mxCell id="EE0eZUk-QuzYK7TAEIGd-3" value="" style="line;strokeWidth=1;fillColor=none;align=left;verticalAlign=middle;spacingTop=-1;spacingLeft=3;spacingRight=3;rotatable=0;labelPosition=right;points=[];portConstraint=eastwest;" vertex="1" parent="EE0eZUk-QuzYK7TAEIGd-1">
          <mxGeometry y="52" width="160" height="8" as="geometry" />
        </mxCell>
        <mxCell id="EE0eZUk-QuzYK7TAEIGd-15" style="edgeStyle=orthogonalEdgeStyle;rounded=0;orthogonalLoop=1;jettySize=auto;html=1;exitX=0.5;exitY=0;exitDx=0;exitDy=0;entryX=0.25;entryY=1;entryDx=0;entryDy=0;endArrow=block;endFill=0;" edge="1" parent="1" source="EE0eZUk-QuzYK7TAEIGd-5" target="EE0eZUk-QuzYK7TAEIGd-1">
          <mxGeometry relative="1" as="geometry" />
        </mxCell>
        <mxCell id="EE0eZUk-QuzYK7TAEIGd-5" value="Occurrence du vecteur" style="swimlane;fontStyle=1;align=center;verticalAlign=top;childLayout=stackLayout;horizontal=1;startSize=26;horizontalStack=0;resizeParent=1;resizeParentMax=0;resizeLast=0;collapsible=1;marginBottom=0;" vertex="1" parent="1">
          <mxGeometry x="30" y="300" width="160" height="80" as="geometry" />
        </mxCell>
        <mxCell id="EE0eZUk-QuzYK7TAEIGd-6" value="+ présence: boolean&#xa;+ abondance: real" style="text;strokeColor=none;fillColor=none;align=left;verticalAlign=top;spacingLeft=4;spacingRight=4;overflow=hidden;rotatable=0;points=[[0,0.5],[1,0.5]];portConstraint=eastwest;" vertex="1" parent="EE0eZUk-QuzYK7TAEIGd-5">
          <mxGeometry y="26" width="160" height="44" as="geometry" />
        </mxCell>
        <mxCell id="EE0eZUk-QuzYK7TAEIGd-7" value="" style="line;strokeWidth=1;fillColor=none;align=left;verticalAlign=middle;spacingTop=-1;spacingLeft=3;spacingRight=3;rotatable=0;labelPosition=right;points=[];portConstraint=eastwest;" vertex="1" parent="EE0eZUk-QuzYK7TAEIGd-5">
          <mxGeometry y="70" width="160" height="10" as="geometry" />
        </mxCell>
        <mxCell id="EE0eZUk-QuzYK7TAEIGd-16" style="edgeStyle=orthogonalEdgeStyle;rounded=0;orthogonalLoop=1;jettySize=auto;html=1;exitX=0.5;exitY=0;exitDx=0;exitDy=0;entryX=0.5;entryY=1;entryDx=0;entryDy=0;endArrow=block;endFill=0;" edge="1" parent="1" source="EE0eZUk-QuzYK7TAEIGd-9" target="EE0eZUk-QuzYK7TAEIGd-1">
          <mxGeometry relative="1" as="geometry" />
        </mxCell>
        <mxCell id="EE0eZUk-QuzYK7TAEIGd-9" value="Occurrence de piqûre(s)" style="swimlane;fontStyle=1;align=center;verticalAlign=top;childLayout=stackLayout;horizontal=1;startSize=26;horizontalStack=0;resizeParent=1;resizeParentMax=0;resizeLast=0;collapsible=1;marginBottom=0;" vertex="1" parent="1">
          <mxGeometry x="210" y="340" width="300" height="80" as="geometry" />
        </mxCell>
        <mxCell id="EE0eZUk-QuzYK7TAEIGd-10" value="+ densité agressive (nb. piqûres / homme / nuit): real" style="text;strokeColor=none;fillColor=none;align=left;verticalAlign=top;spacingLeft=4;spacingRight=4;overflow=hidden;rotatable=0;points=[[0,0.5],[1,0.5]];portConstraint=eastwest;" vertex="1" parent="EE0eZUk-QuzYK7TAEIGd-9">
          <mxGeometry y="26" width="300" height="44" as="geometry" />
        </mxCell>
        <mxCell id="EE0eZUk-QuzYK7TAEIGd-11" value="" style="line;strokeWidth=1;fillColor=none;align=left;verticalAlign=middle;spacingTop=-1;spacingLeft=3;spacingRight=3;rotatable=0;labelPosition=right;points=[];portConstraint=eastwest;" vertex="1" parent="EE0eZUk-QuzYK7TAEIGd-9">
          <mxGeometry y="70" width="300" height="10" as="geometry" />
        </mxCell>
        <mxCell id="EE0eZUk-QuzYK7TAEIGd-17" style="edgeStyle=orthogonalEdgeStyle;rounded=0;orthogonalLoop=1;jettySize=auto;html=1;exitX=0.5;exitY=0;exitDx=0;exitDy=0;entryX=0.75;entryY=1;entryDx=0;entryDy=0;endArrow=block;endFill=0;" edge="1" parent="1" source="EE0eZUk-QuzYK7TAEIGd-12" target="EE0eZUk-QuzYK7TAEIGd-1">
          <mxGeometry relative="1" as="geometry">
            <Array as="points">
              <mxPoint x="640" y="280" />
              <mxPoint x="450" y="280" />
            </Array>
          </mxGeometry>
        </mxCell>
        <mxCell id="EE0eZUk-QuzYK7TAEIGd-12" value="Occurrence de piqûre(s) infectante(s) (transmission)" style="swimlane;fontStyle=1;align=center;verticalAlign=top;childLayout=stackLayout;horizontal=1;startSize=26;horizontalStack=0;resizeParent=1;resizeParentMax=0;resizeLast=0;collapsible=1;marginBottom=0;" vertex="1" parent="1">
          <mxGeometry x="490" y="430" width="320" height="80" as="geometry" />
        </mxCell>
        <mxCell id="EE0eZUk-QuzYK7TAEIGd-13" value="+ ..." style="text;strokeColor=none;fillColor=none;align=left;verticalAlign=top;spacingLeft=4;spacingRight=4;overflow=hidden;rotatable=0;points=[[0,0.5],[1,0.5]];portConstraint=eastwest;" vertex="1" parent="EE0eZUk-QuzYK7TAEIGd-12">
          <mxGeometry y="26" width="320" height="44" as="geometry" />
        </mxCell>
        <mxCell id="EE0eZUk-QuzYK7TAEIGd-14" value="" style="line;strokeWidth=1;fillColor=none;align=left;verticalAlign=middle;spacingTop=-1;spacingLeft=3;spacingRight=3;rotatable=0;labelPosition=right;points=[];portConstraint=eastwest;" vertex="1" parent="EE0eZUk-QuzYK7TAEIGd-12">
          <mxGeometry y="70" width="320" height="10" as="geometry" />
        </mxCell>
      </root>
    </mxGraphModel>
  </diagram>
</mxfile>
